<svg width="112" height="85" viewBox="0 0 112 85" fill="none" xmlns="http://www.w3.org/2000/svg">
<path d="M112 31.5C112 61.0472 84.5995 85.0002 54.5 85.0002C24.4005 85.0002 0 31.5001 0 31.5001C0 31.5001 27.4005 31.5 57.5 31.5C87.5995 31.5 112 1.95277 112 31.5Z" fill="#4FC3F7"/>
<path fill-rule="evenodd" clip-rule="evenodd" d="M70.956 51.57C71.3254 51.0514 71.664 50.5164 71.9705 49.9673C72.636 48.5507 73.6389 47.9315 75.5316 47.7048C83.578 46.7436 89.7735 43.0666 94.2381 37.1595C94.7303 36.5058 95.2341 36.2873 96.0984 36.2974C98.4287 36.3299 100.759 36.3247 103.089 36.3195C103.955 36.3175 104.821 36.3156 105.686 36.3156C107.447 36.3156 107.731 35.9979 107.26 34.472C107.129 34.0488 106.924 33.646 106.652 33.2781C105.638 31.9384 104.129 31.5276 102.361 31.5276C83.1451 31.5397 63.9286 31.5397 44.7114 31.5276C43.5954 31.5529 42.4788 31.5008 41.3722 31.3718C31.5278 29.9815 24.3479 22.0467 24.9256 13.3206C24.9786 12.1782 24.8558 11.0347 24.5605 9.92087C24.2509 8.69048 23.4213 7.72519 21.9469 7.30629C17.6441 6.09208 14.3072 3.75272 11.7121 0.545201C11.4995 0.2801 11.0327 -0.04369 10.76 0.00487809C10.4873 0.0534462 10.1522 0.476394 10.0344 0.790064C7.84595 6.61824 8.96905 12.7034 14.9542 16.8459C16.3267 17.8248 17.6086 18.8973 18.788 20.0534C20.0705 21.2676 20.6991 22.7327 20.8308 24.4468C21.0503 27.2678 21.3184 30.1131 21.9192 32.8794C24.4103 44.3516 32.741 51.8311 44.0297 57.3658C44.363 56.9418 44.6937 56.521 45.0233 56.1016L45.0241 56.1007L45.0622 56.0522C46.0719 54.7674 47.0712 53.496 48.1014 52.1873L50.6873 53.3772L38.6107 69.7204C39.3279 69.7551 40.0165 69.7991 40.6858 69.8419L40.686 69.8419L40.6863 69.8419L40.6865 69.842C42.0849 69.9314 43.3987 70.0154 44.7114 69.9976C52.1408 69.8924 58.6321 67.8667 63.4087 62.6152C64.102 61.8564 64.7837 61.7188 65.8582 61.9596L60.9753 68.5628C61.8104 68.5831 62.6118 68.616 63.39 68.6478L63.3903 68.6479C65.0154 68.7144 66.5394 68.7769 68.0582 68.7126C76.2341 68.3625 82.3417 64.9667 86.5798 58.8714C86.9628 58.3468 87.5054 57.9263 88.1466 57.6572C96.6969 54.1441 103.532 49.0223 107.81 41.5144C108.068 41.0613 108.293 40.5925 108.533 40.0924L108.533 40.0918L108.535 40.0892L108.535 40.089C108.656 39.8365 108.781 39.576 108.916 39.3055C108.949 39.2615 108.977 39.222 109 39.1872L98.1388 39.1872L98.138 39.1887C97.3976 39.2077 96.9315 39.4152 96.5051 39.9521C94.2104 42.802 91.2443 45.1876 87.8069 46.948C82.6837 49.6172 77.096 50.969 70.956 51.57ZM72.1438 37.542C71.1409 37.5399 69.9628 38.581 70.3529 39.4989C70.549 39.9603 70.9075 40.2577 71.3881 40.3751C72.2223 40.5775 73.9648 39.4665 73.9301 38.9585C73.8825 38.5717 73.6742 38.2136 73.3449 37.9524C73.0155 37.6913 72.5881 37.5452 72.1438 37.542Z" fill="#3F51B5"/>
<path d="M38.6777 18.7178C38.674 18.7041 38.6703 18.6904 38.6666 18.6767L38.6545 18.6321C38.6295 18.54 38.6047 18.4488 38.5852 18.3576C35.1813 17.5967 32.7456 15.6843 30.6335 13.3894C30.2031 12.9252 29.7466 12.4785 29.0863 12.4804C28.9322 12.4798 28.767 12.5038 28.5884 12.5577C28.4256 12.6071 28.2797 12.6676 28.1492 12.7382C27.7597 12.9466 27.5085 13.2457 27.365 13.6011C27.2568 13.8652 27.2068 14.1606 27.2019 14.4741C27.169 16.8793 27.8118 19.2546 29.0737 21.391C29.2097 21.6195 29.6191 21.8914 29.8843 21.8883C29.8971 21.8884 29.9096 21.888 29.9217 21.8868C32.3851 21.6703 34.8231 21.3101 36.9376 20.0797C37.3782 19.8243 37.7622 19.4938 38.1457 19.1637L38.1488 19.1611C38.2388 19.0836 38.3288 19.0061 38.4195 18.9297C38.4939 18.867 38.5688 18.805 38.6445 18.7442C38.6492 18.7405 38.6538 18.7368 38.6584 18.7331C38.6648 18.728 38.6713 18.7229 38.6777 18.7178Z" fill="#3F51B5"/>
</svg>
